<?xml version="1.0" encoding="UTF-8"?>
<!DOCTYPE svg PUBLIC "-//W3C//DTD SVG 1.1//EN" "http://www.w3.org/Graphics/SVG/1.1/DTD/svg11.dtd">
<!-- Creator: CorelDRAW 2020 (64 Bit) -->
<svg xmlns="http://www.w3.org/2000/svg" xml:space="preserve" width="42.66mm" height="8.41mm" version="1.1" style="shape-rendering:geometricPrecision; text-rendering:geometricPrecision; image-rendering:optimizeQuality; fill-rule:evenodd; clip-rule:evenodd"
viewBox="0 0 4266 841"
 xmlns:xlink="http://www.w3.org/1999/xlink"
 xmlns:xodm="http://www.corel.com/coreldraw/odm/2003">
 <defs>
  <style type="text/css">
   <![CDATA[
    .fil0 {fill:white}
   ]]>
  </style>
 </defs>
 <g id="Camada_x0020_1">
  <metadata id="CorelCorpID_0Corel-Layer"/>
  <path class="fil0" d="M1507.25 807.86l2487.96 -0.13c72.7,0 329.16,29.82 254.1,-90.18 -28.92,-46.23 -258.28,-27.2 -330.3,-27.2l-2507.98 -0.2c22.57,38.55 67.88,85.79 96.22,117.71z"/>
  <polygon class="fil0" points="2397.68,9.71 2562.59,547.34 2736.49,546.7 2796.68,328.36 2862.18,546.45 3002.86,545.68 3170.7,7.83 2997,7.64 2942.64,228.49 2870.61,7.23 2710.29,8.43 2644.43,233.35 2572.32,7.17 "/>
  <path class="fil0" d="M306.55 144.31c46.03,-4.1 120.71,-4.85 159.27,4.87 14.87,33.61 15.12,54.44 2.3,90.18l-161.71 0.03 0.14 -95.08zm-307.4 23.74l111.69 -0.09 0.89 675.33 194.04 0.49 0.01 -473.07c123.06,-13.38 204.92,17.09 284.95,-52.5 64.35,-55.96 72.62,-174.56 13.35,-248.5 -53.33,-66.52 -168.79,-62.34 -274.93,-62.34 -108.73,0.01 -220.26,-2.41 -329.47,0.53l-0.53 160.15z"/>
  <path class="fil0" d="M1480.72 141.84c125.53,-2.11 211.69,-8.65 209.19,135.29 -2.45,140.87 -81.92,136.5 -209.57,135.02l0.38 -270.31zm-178.47 409.55c185.97,-41.64 586.01,114.01 591.62,-274.79 4.68,-324.64 -314.84,-271.38 -593.5,-269.03l1.88 543.82z"/>
  <path class="fil0" d="M3928.81 352.02c19.89,9.85 105.1,121.22 124.27,146.4 27.11,35.62 27.5,48.44 85.38,48.61 41.58,0.11 84.45,-0.21 127.19,-0.88l-1.07 -538.94 -173.36 2.72 1.07 191.78c-10.19,-7.61 -7.62,-5.01 -16.28,-13.09l-143.64 -180.76 -176.84 -0.49 1.86 539.89 173.21 -0.87 -1.79 -194.37z"/>
  <path class="fil0" d="M930.29 135.67c14.95,19.83 67.03,176.64 66.06,205.14l-141.77 -1.19 75.71 -203.95zm-81.06 314.21l156.61 -0.92 35.31 97.48 201.04 -0.38c-1.22,-31.17 -4.41,-21.36 -20.81,-69.22 -8.51,-24.84 -14.87,-44.32 -23.38,-69.61l-134.11 -399.82 -267.39 0.78 -173.43 538.21 188.52 -0.2 37.64 -96.32z"/>
  <path class="fil0" d="M2108.82 341.07c-0.76,-36.09 54.09,-179.94 73.69,-206.75 15.82,44.91 65.83,170.26 64.43,206.32l-138.12 0.43zm-46.66 204.19c43.06,-117.34 -6.83,-96.71 193.54,-94.05l35.07 94.43 203.25 4.41 -181.95 -537.73c-51.41,-17.76 -197.76,-4.91 -265.9,-5.32l-175.66 539.64 191.65 -1.38z"/>
  <path class="fil0" d="M3385.31 133.85c19.57,23.14 69,172.02 71.54,206.72l-144.16 -1.29 72.62 -205.43zm-78.86 316.5l153.74 -0.46c16.45,23.01 28.09,63.47 37.91,95.6 65.89,2.9 138.59,-8.14 205.53,4.93l-182.28 -543.13 -266.52 0.21 -175.28 544.09c58.85,-13.16 128.32,-5.33 190.23,-4.79l36.67 -96.45z"/>
  <path class="fil0" d="M1355.49 815.74c4.79,-4.49 -6.1,-9.48 39.62,-11.91 14.51,-0.76 38.27,1.1 53.71,1.42 -12.05,-25.77 -81.28,-110.95 -103.67,-114.72l-423.33 -0.02c-60.77,0.12 -18.26,2.54 -35.94,-15.56 -15.11,-10.69 -152.59,-9.2 -185.02,-7.37 -47.98,2.71 -19.57,-4.24 -48.14,17.96 -64.81,50.37 -51.93,88.16 9.9,130.82 1.42,0.98 3.78,2.55 5.1,3.39 22.08,14.21 203.16,8.56 203.3,8.51l22.64 -20.29 176.57 -0.12c45.39,16.54 -37.14,-20.29 15.07,9.46l38.89 11.74c164.15,9.57 84.09,-19.34 128.33,-21.96 31.33,-1.86 16.23,41.06 102.97,8.65z"/>
 </g>
</svg>
