<?xml version="1.0" encoding="UTF-8"?>
<!DOCTYPE svg PUBLIC "-//W3C//DTD SVG 1.1//EN" "http://www.w3.org/Graphics/SVG/1.1/DTD/svg11.dtd">
<!-- Creator: CorelDRAW 2020 (64 Bit) -->
<svg xmlns="http://www.w3.org/2000/svg" xml:space="preserve" width="21.19mm" height="16.63mm" version="1.1" style="shape-rendering:geometricPrecision; text-rendering:geometricPrecision; image-rendering:optimizeQuality; fill-rule:evenodd; clip-rule:evenodd"
viewBox="0 0 2119 1663"
 xmlns:xlink="http://www.w3.org/1999/xlink"
 xmlns:xodm="http://www.corel.com/coreldraw/odm/2003">
 <defs>
  <style type="text/css">
   <![CDATA[
    .fil6 {fill:#3A393A}
    .fil4 {fill:#3A3C3A}
    .fil2 {fill:#62704D}
    .fil5 {fill:#986E4B}
    .fil0 {fill:#ACC472}
    .fil1 {fill:#AE938A}
    .fil3 {fill:#BBA298}
   ]]>
  </style>
 </defs>
 <g id="Camada_x0020_1">
  <metadata id="CorelCorpID_0Corel-Layer"/>
  <g id="_2650992739648">
   <path class="fil0" d="M1158.64 820.33c14.49,-5.4 30.96,-13.29 42.36,-20.22 20.84,-12.66 14.05,-16.69 35.44,-23.38 -5.67,-38.49 -47.17,-25.76 -36.2,-56.86 28.43,-2.61 75.66,44.06 86.54,56.14 16.08,17.85 57.69,77.19 43.75,95.97 -19.9,26.83 -30.19,-68.6 -59.55,-78.09 -37.25,-12.04 -155.19,123.2 -335.44,45.6 -16.93,-7.29 -32.12,-18.35 -45.65,-26.85 -50.73,-31.88 -57.18,-18.89 -85.56,23.52 -5.4,8.07 -7.69,12.79 -11.72,23.33 -4.29,11.23 -5.42,17.42 -16.05,19.76 -26.28,-12.15 4.32,-47.91 13.93,-61.9 29.41,-42.83 49.48,-60.71 101.74,-83.63 15.57,-6.83 26.91,7.87 15.06,17.59 -6.59,5.4 -46.5,12.83 -16.44,37.88 4.63,3.86 10.96,9.17 16.95,13.04 10.86,7.01 26,14.21 40.67,19.44 60.33,21.5 150.09,21.07 210.17,-1.34zm-401.99 -348.48c52.21,-5.43 95.28,31.48 102.85,81.38 8.36,55.08 -34.19,100.36 -80.44,107.84 -54.12,8.75 -99.59,-36.56 -104.05,-83.43 -5.2,-54.68 32.8,-100.71 81.64,-105.79zm565.38 0.12c54.66,-6.02 95.31,33.67 102.95,81.26 8.9,55.48 -33.36,101.48 -80.67,107.55 -49.86,6.39 -98.78,-31.83 -104.4,-83.16 -5.86,-53.6 34.84,-100.46 82.12,-105.65zm92.4 -147.16c-14.06,0.16 -21.97,-9.56 -33.77,-15.47 -41.61,-20.84 -56.64,-28.25 -106.51,-41.06 -73.99,-19.02 -157.59,-13.79 -173.51,-18.9 -6.03,-27.67 4.42,-24.22 31.13,-23.38 110.31,3.46 178.12,18.86 272.2,70.06 14.55,7.91 25.59,11.28 10.46,28.75zm-734.17 -0.63c-4.92,-20.88 1.05,-19.65 17.62,-29.7 36.06,-21.9 70.48,-35.25 112.75,-47.52 38.84,-11.27 155.87,-27.88 189.34,-17.69 3.39,23.93 -5.95,21.42 -28.27,21.79 -69.85,1.13 -156.46,13.04 -219.61,42.58 -25.81,12.07 -55.77,32.33 -71.83,30.54zm414.1 -160.76c-4.85,-27.48 21.3,-21.25 44.97,-20.45l109.58 15.5c22,3.28 38.27,1.03 33.24,24.98 -19.39,4.25 -172.35,-12.69 -187.79,-20.03zm-89.06 -16.78c5.58,35.74 -13.41,19.24 -88.66,26.76 -17.33,1.74 -33.83,3.22 -51.13,5.93 -12.31,1.93 -41.51,12.12 -47.85,2.27 -13.73,-21.33 22.82,-21.9 33.86,-23.6 44.06,-6.76 114.83,-19.33 153.78,-11.36zm-117.14 -60.17c27.63,-10.8 94.89,-30.01 120.48,-8.56 2.03,24.56 -31.53,20.58 -52.8,21.71 -16.29,0.87 -55.36,6.87 -67.37,3.3l-0.31 -16.45zm322.68 17.94c-16.91,2.54 -48.61,-2.89 -67.12,-5.56 -15.91,-2.29 -56.7,2.19 -50.54,-19.35 7.31,-25.51 103.69,0.65 119.67,7.97l-2.01 16.94zm-185.76 -97.55c-83.35,2.01 -195.11,47.11 -248.43,96.26 -13.12,12.1 -26.54,21.48 -36.55,33.42 -52.39,62.45 -100.93,133.47 -148.5,199.24 -9.92,13.71 -19.5,27.46 -29.32,40.71 -37.7,50.83 -86.57,114.65 -102.57,175.02 -28.2,106.39 -42.37,218.2 39.11,299.49 3.61,3.59 5.71,5.1 9.06,8.52 95.78,97.86 453.29,154.56 568.85,143.38 172.09,-16.66 294.06,-27.58 451.19,-100.97 57.58,-26.9 110.8,-75.01 126.04,-151.43 15.36,-77 2.9,-170.28 -28.9,-237.79 -39.59,-84.03 -183.7,-270.79 -240.95,-346.91 -13.76,-18.3 -18.7,-21.75 -33.74,-36.28 -3.45,-3.34 -5.68,-5.13 -8.93,-8.61 -25.27,-27.12 -57.84,-49.34 -91.9,-65.67 -77.73,-37.28 -132.65,-50.61 -224.46,-48.38z"/>
   <path class="fil0" d="M1679.52 580.14c7.48,0.04 11.58,-1.43 16.87,-5.01 35.89,-24.32 89.91,-55.79 119.5,-83.19 7.07,-6.54 5.88,-4.95 12.53,-10.02l75.35 -82.19 35.71 -54.37c14.17,-20.76 23.87,-32.01 41.8,-48.25 5.76,-5.22 5.85,-5.6 11.04,-11.41l24.97 -20.09c22.98,-16.35 47.24,-31.36 74.66,-40.42 10.83,-3.58 28.07,-9.88 15.65,-24.61 -3.87,-4.59 -56.55,-19.92 -67.46,-22.9 -177.67,-48.62 -325.11,-40.69 -494.58,33.95 -10.78,4.75 -18.79,10.8 -30.19,14.81 -15.95,5.62 -51.41,6.7 -26.48,44.71 28.56,43.54 65.37,2.83 121.41,-19.78 110.84,-44.7 193.7,-47.27 314.51,-38.69 15.35,1.09 30.56,-0.35 26.82,16.81 -2.7,12.43 -13.38,14.79 -24.87,20.63 -37.1,18.85 -69.1,52.84 -96.93,83.25l-106.37 118.69c-18.54,17.57 -24.51,24.92 -48.49,41.53 -7.92,5.49 -20.01,11.38 -22.4,22.86 -2.5,12.02 21.74,58.54 26.95,63.69z"/>
   <path class="fil0" d="M413.86 579.5c14.29,-6.73 30.61,-45.66 31.74,-52.13 5.56,-32.12 -31.99,-35.85 -60.52,-62.93 -5.12,-4.86 -5.03,-5.28 -10.27,-9.68 -4.84,-4.06 -7.58,-6.38 -11.62,-10.93 -24.56,-27.63 -39.42,-50.41 -64.33,-80.68 -20.41,-24.8 -9.26,-10.98 -31.81,-33.31 -21.94,-21.73 -10.24,-14.83 -44.4,-40.69 -8.53,-6.45 -14.92,-12.82 -23.48,-18.97 -14.63,-10.5 -36.21,-20.48 -50.24,-33.49 -1.55,-31.32 16.48,-24.08 42.29,-24.84 108.38,-3.19 192.79,-4.82 299.64,39.28 34.13,14.08 77.98,44.47 97.79,39.83 12.12,-2.84 28.4,-24.1 29.72,-38.49 1.76,-19.04 -24.73,-20.98 -40.65,-28.2 -126.39,-57.3 -188.31,-78.85 -333.96,-75.14 -78.02,1.99 -160.5,17.96 -231.94,44.6 -8.06,3 -16.01,7.83 -18.45,13.81 -6.25,15.34 21.03,14.84 61.65,39.17 21.59,12.93 63.24,44.66 76.42,61.11 31.78,39.66 25.42,30.31 57.78,79.89 31.34,48.03 48.35,55.69 79.06,90.95 11.42,13.1 82.7,62.04 101.51,73.63 8.54,5.26 14.42,8.36 21.09,13.91 6.44,5.35 11.98,10.23 22.98,13.3z"/>
   <path class="fil1" d="M1117.53 1112.8c48.94,4.68 115.04,-32.09 170.06,-15.34l-0.03 15.9c-16.05,4.41 -62.12,7.29 -81.13,9.92 -34.68,4.8 -64.08,3 -49.57,30.08 25.57,47.78 56.05,67.32 5.77,123.67l-20.6 24.38c-24.35,32.04 1.3,87.57 39.27,71.8 29.22,-12.14 127.6,-86.54 154.93,-117.73 12.42,-14.17 28.05,-29.75 33.77,-56.43 9.72,-45.38 -31.88,-103.65 -51.05,-127.57 -15.35,-19.15 -24.45,-36.85 -43.3,-46.82 -21.49,-11.37 -53.34,-15.85 -78.84,-13.3 -35.03,3.51 -43.71,11.01 -56.12,33.65 -9.62,17.54 -23.86,45.54 -23.16,67.79z"/>
   <path class="fil1" d="M930.86 1131.51c-27.53,-18.24 -82.88,-12.64 -118.47,-16.51l0.5 -17.73c47.54,-13.78 149.46,25.66 162.56,10.02 11.49,-13.72 -9.52,-59.15 -16.37,-68.71 -20.35,-28.4 -76.15,-32.31 -109.98,-29.59 -17.65,1.43 -28.01,14.48 -39.29,30.29l-33.06 39.48c-19.45,24.17 -62.59,85.86 -45.73,132.85 5.94,16.55 21.96,30.26 29.05,38.46 4.58,5.3 7.03,8.4 11.6,13.5 8.77,9.78 14.6,14.6 24.67,22.87 40.54,33.31 29.12,27 79.06,61.02 13.11,8.94 46.23,33.56 65.38,28.26 12.2,-3.37 42.8,-36.7 7.64,-63.82 -3.42,-2.64 -3.07,-2.85 -6.69,-5.76 -105.2,-84.87 -5.23,-135.99 -10.87,-174.63z"/>
   <path class="fil2" d="M1893.78 245.53l-3.28 -10.67c-62.2,-13.96 -193.39,8.13 -258.91,32.76 -116.93,43.94 -107.14,55.41 -68.93,102.39 10.05,12.35 21.19,30.31 30.64,44.39l29.84 42.76c16.29,18.93 28.43,25.79 50.09,12.22l39.15 -33.44c16.69,-15.04 18.85,-21.92 34.27,-40.74 6.82,-8.33 8.03,-11.37 15.07,-19.95 2.93,-3.57 4.88,-5.43 8.09,-9.39 23.56,-29.13 35.63,-43.74 63.94,-68.72l40.22 -34.77c6.43,-5.24 16.32,-12.41 19.81,-16.84z"/>
   <path class="fil2" d="M210.1 241.67c2.75,9.62 6.8,12.87 14.24,18.36 6.65,4.9 15.13,12.01 20.72,16.8 18.07,15.48 43.4,37.5 57.62,54.96l25.76 29.2c3.51,4.27 4.52,6.23 8.6,11.45 4.72,6.05 10.89,13.86 16.06,21.42l15.29 19.71c6.49,8.3 9.22,13.09 17.45,20.08 4.15,3.53 6.01,4.32 10.18,7.41l31.8 25.7c23.01,16.62 37.86,12.8 49.93,-7.26 9.42,-15.67 19.52,-30.89 29.15,-45.85 58.49,-90.85 102.84,-91.51 -42.49,-146.12 -36.78,-13.82 -77.53,-23.83 -118.11,-29.95 -22.93,-3.46 -46.55,-3.9 -70.02,-4.59 -12.76,-0.37 -25.36,0.75 -37.57,-0.06 -16.03,-1.06 -22.18,-2.88 -28.61,8.74z"/>
   <path class="fil3" d="M1300.85 1337.44c-30,-8.32 -29.49,7.93 -63.24,29.52 -22.67,14.49 -43.77,35.67 -68.24,34.39 -36.51,-1.91 -46.58,-36.02 -55.29,24.76 -14.31,99.92 -23.39,104.15 80.22,104.32 115.51,0.18 108.66,12.14 109.08,-94.17 0.12,-29.84 4.34,-74.5 -2.53,-98.82z"/>
   <path class="fil3" d="M1017.63 1368.72c1.93,-14.87 -0.92,-34.83 -20.27,-24.5 -16.84,8.98 -25.02,82.93 -96.53,45.32 -82.97,-43.65 -81.04,-54.07 -80.63,71.73 0.05,14.42 -0.64,39.19 4.03,52.27 3.33,9.32 4.3,10.03 14.37,13.05 21.15,6.34 110.57,6.25 127.65,3.92 35.12,-4.79 42.96,-28.24 42.35,-64.17 -0.55,-31.94 4.91,-65.96 9.03,-97.62z"/>
   <path class="fil4" d="M756.65 471.85c-48.84,5.08 -86.84,51.11 -81.64,105.79 4.46,46.87 49.93,92.18 104.05,83.43 46.25,-7.48 88.8,-52.76 80.44,-107.84 -7.57,-49.9 -50.64,-86.81 -102.85,-81.38z"/>
   <path class="fil4" d="M1322.03 471.97c-47.28,5.19 -87.98,52.05 -82.12,105.65 5.62,51.33 54.54,89.55 104.4,83.16 47.31,-6.07 89.57,-52.07 80.67,-107.55 -7.64,-47.59 -48.29,-87.28 -102.95,-81.26z"/>
   <path class="fil5" d="M1093.05 1427.65c4.94,-37.7 19.23,-86.91 -3.6,-116.67 -11.07,-14.42 -25.58,-13.85 -43.55,-23.95 -13.17,-7.41 -21.14,-30.07 -33.13,-34.97 -28.27,-11.53 -68.37,55.81 -2.22,60.83 25.48,1.93 31,12.14 29.73,37.88 -0.89,18.17 -4.6,40.15 -7.26,58.65 -7.03,48.93 -20.24,221.28 -2.99,258.11 12.73,2.81 15.32,3.13 28.29,0.18 11.58,-26.14 28.83,-194.99 34.73,-240.06z"/>
   <path class="fil6" d="M1200.24 719.87c-10.97,31.1 30.53,18.37 36.2,56.86 -21.39,6.69 -14.6,10.72 -35.44,23.38 -11.4,6.93 -27.87,14.82 -42.36,20.22 -60.08,22.41 -149.84,22.84 -210.17,1.34 -14.67,-5.23 -29.81,-12.43 -40.67,-19.44 -5.99,-3.87 -12.32,-9.18 -16.95,-13.04 -30.06,-25.05 9.85,-32.48 16.44,-37.88 11.85,-9.72 0.51,-24.42 -15.06,-17.59 -52.26,22.92 -72.33,40.8 -101.74,83.63 -9.61,13.99 -40.21,49.75 -13.93,61.9 10.63,-2.34 11.76,-8.53 16.05,-19.76 4.03,-10.54 6.32,-15.26 11.72,-23.33 28.38,-42.41 34.83,-55.4 85.56,-23.52 13.53,8.5 28.72,19.56 45.65,26.85 180.25,77.6 298.19,-57.64 335.44,-45.6 29.36,9.49 39.65,104.92 59.55,78.09 13.94,-18.78 -27.67,-78.12 -43.75,-95.97 -10.88,-12.08 -58.11,-58.75 -86.54,-56.14z"/>
   <path class="fil0" d="M1364.9 1613.86c6.14,-18.58 -21.7,-44.16 -30.96,-49.62 -16.68,-9.83 -55.2,-6.5 -77.1,-6.54l-127.7 -0.39c-14.98,0.07 -25.51,0.04 -30.63,10.8 -3.76,7.94 -7.16,29.95 -5.24,38.19 5.65,24.28 73.15,16.32 111.04,16.96l127.58 0.31c13.09,0.5 28.21,4.83 33.01,-9.71z"/>
   <path class="fil0" d="M754.65 1618.69c17.87,12.62 202.03,7.45 224.53,0.36 12.16,-3.84 17.94,-7.52 20.44,-20.23 10.12,-51.51 -30.44,-42.09 -70.47,-42.03 -26.68,0.05 -53.36,0.11 -80.05,0.16 -24.61,0.04 -50.92,-2.9 -67.58,11.82 -9.78,8.64 -30.18,28.26 -26.87,49.92z"/>
   <path class="fil0" d="M1091.08 1156.85c-79.55,8.25 -72.95,142.16 22.98,126.49 43.24,-7.05 56.49,-46.78 51.73,-73.52 -6.77,-38.03 -37.4,-56.83 -74.71,-52.97z"/>
   <path class="fil6" d="M680.26 324.18c16.06,1.79 46.02,-18.47 71.83,-30.54 63.15,-29.54 149.76,-41.45 219.61,-42.58 22.32,-0.37 31.66,2.14 28.27,-21.79 -33.47,-10.19 -150.5,6.42 -189.34,17.69 -42.27,12.27 -76.69,25.62 -112.75,47.52 -16.57,10.05 -22.54,8.82 -17.62,29.7z"/>
   <path class="fil6" d="M1100.64 249.38c15.92,5.11 99.52,-0.12 173.51,18.9 49.87,12.81 64.9,20.22 106.51,41.06 11.8,5.91 19.71,15.63 33.77,15.47 15.13,-17.47 4.09,-20.84 -10.46,-28.75 -94.08,-51.2 -161.89,-66.6 -272.2,-70.06 -26.71,-0.84 -37.16,-4.29 -31.13,23.38z"/>
   <path class="fil0" d="M944.16 1273.84c13.2,-6.99 69.45,-70.09 73.72,-84.08 5.29,-17.31 -8.41,-26.41 -24.15,-27.58 -86.94,-6.42 -91.1,96.23 -49.57,111.66z"/>
   <path class="fil6" d="M1094.36 163.42c15.44,7.34 168.4,24.28 187.79,20.03 5.03,-23.95 -11.24,-21.7 -33.24,-24.98l-109.58 -15.5c-23.67,-0.8 -49.82,-7.03 -44.97,20.45z"/>
   <path class="fil6" d="M1005.3 146.64c-38.95,-7.97 -109.72,4.6 -153.78,11.36 -11.04,1.7 -47.59,2.27 -33.86,23.6 6.34,9.85 35.54,-0.34 47.85,-2.27 17.3,-2.71 33.8,-4.19 51.13,-5.93 75.25,-7.52 94.24,8.98 88.66,-26.76z"/>
   <path class="fil6" d="M888.16 86.47l0.31 16.45c12.01,3.57 51.08,-2.43 67.37,-3.3 21.27,-1.13 54.83,2.85 52.8,-21.71 -25.59,-21.45 -92.85,-2.24 -120.48,8.56z"/>
   <path class="fil6" d="M1210.84 104.41l2.01 -16.94c-15.98,-7.32 -112.36,-33.48 -119.67,-7.97 -6.16,21.54 34.63,17.06 50.54,19.35 18.51,2.67 50.21,8.1 67.12,5.56z"/>
  </g>
 </g>
</svg>
